<svg viewBox="0 0 100 100" xmlns="http://www.w3.org/2000/svg">
  <rect width="100" height="100" fill="#2a2420" rx="12"/>

  <line x1="0" y1="34" x2="100" y2="34" stroke="#2a2420" stroke-width="3"/>
  <line x1="0" y1="67" x2="100" y2="67" stroke="#2a2420" stroke-width="3"/>
  <line x1="34" y1="0" x2="34" y2="100" stroke="#2a2420" stroke-width="3"/>
  <line x1="67" y1="0" x2="67" y2="100" stroke="#2a2420" stroke-width="3"/>

  <rect x="1.5" y="1.5" width="31" height="31" fill="#5a1a0a" rx="3"/>
  <rect x="35.5" y="1.5" width="29" height="31" fill="#8b3a10" rx="3"/>

  <rect x="1.5" y="35.5" width="31" height="29" fill="#8b5a30" rx="3"/>
  <rect x="35.5" y="35.5" width="29" height="29" fill="#c06830" rx="3"/>
  <rect x="68.5" y="35.5" width="30" height="29" fill="#ff6a00" rx="3"/>

  <rect x="1.5" y="68.5" width="31" height="30" fill="#b05a28" rx="3"/>
  <rect x="35.5" y="68.5" width="29" height="30" fill="#e06020" rx="3"/>
  <rect x="68.5" y="68.5" width="30" height="30" fill="#ff2200" rx="3"/>

  <circle cx="50" cy="50" r="5" fill="#1a1210"/>
</svg>
